<svg width="21" height="20" viewBox="0 0 21 20" fill="none" xmlns="http://www.w3.org/2000/svg">
<path d="M7.25697 19.7456C8.18478 19.7456 8.93692 18.9935 8.93692 18.0657C8.93692 17.1379 8.18478 16.3857 7.25697 16.3857C6.32916 16.3857 5.57703 17.1379 5.57703 18.0657C5.57703 18.9935 6.32916 19.7456 7.25697 19.7456Z" fill="#D2D2D2"/>
<path d="M15.9926 19.7456C16.9204 19.7456 17.6725 18.9935 17.6725 18.0657C17.6725 17.1379 16.9204 16.3857 15.9926 16.3857C15.0648 16.3857 14.3126 17.1379 14.3126 18.0657C14.3126 18.9935 15.0648 19.7456 15.9926 19.7456Z" fill="#D2D2D2"/>
<path d="M20.4277 2.53625C20.3651 2.45493 20.2847 2.38903 20.1927 2.3436C20.1006 2.29817 19.9994 2.27443 19.8968 2.27418H4.37411L4.07172 1.31325C4.03851 1.21007 3.98082 1.11646 3.9036 1.04041C3.82637 0.964349 3.73189 0.908102 3.62822 0.876464L0.873105 0.029771C0.788389 0.00373856 0.699376 -0.00535308 0.611146 0.00301538C0.522917 0.0113838 0.4372 0.0370484 0.358889 0.0785437C0.200734 0.162347 0.0823466 0.305546 0.0297718 0.476637C-0.022803 0.647728 -0.00525885 0.832696 0.0785447 0.990852C0.162348 1.14901 0.305547 1.26739 0.476638 1.31997L2.88904 2.05915L5.9667 11.7827L4.87138 12.6831L4.78402 12.7705C4.51314 13.0841 4.35968 13.4822 4.34987 13.8965C4.34006 14.3108 4.47453 14.7156 4.73026 15.0418C4.91341 15.2645 5.14615 15.4413 5.40986 15.558C5.67356 15.6747 5.96092 15.728 6.24893 15.7137H17.4643C17.6425 15.7137 17.8134 15.643 17.9394 15.5169C18.0654 15.3909 18.1362 15.22 18.1362 15.0418C18.1362 14.8635 18.0654 14.6926 17.9394 14.5666C17.8134 14.4406 17.6425 14.3698 17.4643 14.3698H6.14142C6.06404 14.3671 5.98864 14.3446 5.92252 14.3043C5.85641 14.264 5.80179 14.2074 5.76396 14.1398C5.72613 14.0723 5.70636 13.9961 5.70656 13.9187C5.70676 13.8412 5.72693 13.7652 5.76511 13.6978L7.38458 12.3539H17.7532C17.9067 12.3583 18.0571 12.3101 18.1794 12.2172C18.3016 12.1242 18.3884 11.9922 18.4252 11.8432L20.5755 3.10743C20.5959 3.00725 20.5933 2.90373 20.5676 2.80475C20.542 2.70577 20.4941 2.61394 20.4277 2.53625V2.53625Z" fill="#D2D2D2"/>
</svg>
