<svg width="15" height="15" viewBox="0 0 15 15" fill="none" xmlns="http://www.w3.org/2000/svg">
<path d="M5.55417 13.3333C6.07194 13.3333 6.49167 12.9136 6.49167 12.3958C6.49167 11.878 6.07194 11.4583 5.55417 11.4583C5.0364 11.4583 4.61667 11.878 4.61667 12.3958C4.61667 12.9136 5.0364 13.3333 5.55417 13.3333Z" fill="black"/>
<path d="M11.25 13.3333C11.7678 13.3333 12.1875 12.9136 12.1875 12.3958C12.1875 11.878 11.7678 11.4583 11.25 11.4583C10.7322 11.4583 10.3125 11.878 10.3125 12.3958C10.3125 12.9136 10.7322 13.3333 11.25 13.3333Z" fill="black"/>
<path d="M13.658 2.23747C13.6193 2.18968 13.5704 2.15106 13.5149 2.12441C13.4594 2.09775 13.3988 2.08371 13.3372 2.08331H4.66221L4.93304 2.91664H12.7914L11.6789 7.91664H5.42888L3.52471 1.88747C3.50411 1.8235 3.46835 1.76545 3.42046 1.71829C3.37258 1.67113 3.31399 1.63626 3.24971 1.61664L1.54138 1.09164C1.48885 1.0755 1.43365 1.06986 1.37895 1.07505C1.32424 1.08024 1.27109 1.09615 1.22253 1.12188C1.12447 1.17385 1.05106 1.26264 1.01846 1.36872C0.985861 1.47481 0.996739 1.5895 1.0487 1.68757C1.10067 1.78563 1.18946 1.85904 1.29554 1.89164L2.79138 2.34997L4.70388 8.39164L4.02054 8.94997L3.96638 9.00414C3.79735 9.19893 3.70154 9.44656 3.69546 9.70439C3.68938 9.96222 3.77339 10.2141 3.93304 10.4166C4.04661 10.5547 4.19092 10.6644 4.35444 10.7367C4.51795 10.8091 4.69612 10.8421 4.87471 10.8333H11.8289C11.9394 10.8333 12.0454 10.7894 12.1235 10.7113C12.2016 10.6331 12.2455 10.5271 12.2455 10.4166C12.2455 10.3061 12.2016 10.2002 12.1235 10.122C12.0454 10.0439 11.9394 9.99997 11.8289 9.99997H4.80804C4.76006 9.99833 4.71332 9.98435 4.67232 9.95937C4.63132 9.93439 4.59746 9.89926 4.574 9.85737C4.55054 9.81548 4.53828 9.76825 4.53841 9.72025C4.53853 9.67224 4.55104 9.62507 4.57471 9.58331L5.57888 8.74997H12.0122C12.1085 8.75233 12.2027 8.72123 12.2787 8.66197C12.3546 8.60272 12.4077 8.51897 12.4289 8.42497L13.7497 2.59164C13.7624 2.52952 13.7607 2.46533 13.7448 2.40396C13.7289 2.34258 13.6993 2.28564 13.658 2.23747V2.23747Z" fill="black"/>
</svg>
