<svg width="14" height="13" viewBox="0 0 14 13" fill="none" xmlns="http://www.w3.org/2000/svg">
<path d="M7.00012 2.38163L6.37273 1.7429C4.90006 0.243575 2.19972 0.760973 1.22495 2.64597C0.767306 3.53256 0.664053 4.81263 1.4997 6.44629C2.30473 8.01928 3.97953 9.90341 7.00012 11.9557C10.0207 9.90341 11.6946 8.01928 12.5005 6.44629C13.3362 4.81176 13.2338 3.53256 12.7753 2.64597C11.8005 0.760973 9.10018 0.242708 7.62751 1.74204L7.00012 2.38163ZM7.00012 13C-6.41666 4.21896 2.86912 -2.63462 6.84612 0.990639C6.89862 1.03831 6.95024 1.08771 7.00012 1.13884C7.04949 1.08775 7.10087 1.0386 7.15413 0.991506C11.1302 -2.63635 20.4169 4.21809 7.00012 13Z" fill="#262626"/>
</svg>
