<svg width="13" height="13" viewBox="0 0 13 13" fill="none" xmlns="http://www.w3.org/2000/svg">
<path d="M6.96324 0.192213C6.90284 0.131307 6.83097 0.0829651 6.75178 0.049975C6.6726 0.0169849 6.58766 0 6.50188 0C6.4161 0 6.33116 0.0169849 6.25198 0.049975C6.17279 0.0829651 6.10092 0.131307 6.04051 0.192213L0.192213 6.04052C0.131307 6.10093 0.082965 6.1728 0.049975 6.25198C0.0169849 6.33117 0 6.4161 0 6.50188C0 6.58767 0.0169849 6.6726 0.049975 6.75179C0.082965 6.83097 0.131307 6.90284 0.192213 6.96325C0.252931 7.02348 0.324941 7.07112 0.404112 7.10346C0.483283 7.1358 0.568059 7.15219 0.653579 7.1517H1.30339V11.7004C1.30339 12.0451 1.44031 12.3756 1.68404 12.6193C1.92777 12.8631 2.25833 13 2.60301 13H10.4007C10.7454 13 11.076 12.8631 11.3197 12.6193C11.5634 12.3756 11.7004 12.0451 11.7004 11.7004V7.1517H12.3502C12.5225 7.1517 12.6878 7.08323 12.8097 6.96137C12.9315 6.83951 13 6.67422 13 6.50188C13.0005 6.41636 12.9841 6.33159 12.9518 6.25242C12.9194 6.17325 12.8718 6.10124 12.8115 6.04052L6.96324 0.192213ZM2.60301 11.7004V5.46868L6.50188 1.56981L10.4007 5.46868V11.7004H2.60301Z" fill="#444444"/>
</svg>
