<svg width="13" height="12" viewBox="0 0 13 12" fill="none" xmlns="http://www.w3.org/2000/svg">
<path d="M6.98304 0.196363C6.92214 0.134515 6.8479 0.0850988 6.7651 0.0512833C6.6823 0.0174679 6.59275 0 6.5022 0C6.41166 0 6.32211 0.0174679 6.23931 0.0512833C6.1565 0.0850988 6.08227 0.134515 6.02137 0.196363L0.173367 6.19415C0.0871333 6.27997 0.0299897 6.38721 0.00898023 6.50264C-0.0120293 6.61808 0.00401357 6.73666 0.0551313 6.84378C0.106249 6.9509 0.190207 7.04188 0.296657 7.10549C0.403107 7.1691 0.527395 7.20257 0.654203 7.20177H1.95376V11.4002C1.95376 11.5593 2.02222 11.7118 2.14407 11.8243C2.26593 11.9368 2.4312 12 2.60354 12H10.4009C10.5732 12 10.7385 11.9368 10.8603 11.8243C10.9822 11.7118 11.0506 11.5593 11.0506 11.4002V7.20177H12.3502C12.5225 7.20177 12.6878 7.13858 12.8097 7.0261C12.9315 6.91362 13 6.76107 13 6.602C13.0012 6.45128 12.9409 6.30567 12.831 6.19415L6.98304 0.196363Z" fill="#F2F2F2"/>
</svg>
