<svg width="16" height="20" viewBox="0 0 16 20" fill="none" xmlns="http://www.w3.org/2000/svg">
<path d="M8 10C10.525 10 12.5714 7.76172 12.5714 5C12.5714 2.23828 10.525 0 8 0C5.475 0 3.42857 2.23828 3.42857 5C3.42857 7.76172 5.475 10 8 10ZM11.2 11.25H10.6036C9.81071 11.6484 8.92857 11.875 8 11.875C7.07143 11.875 6.19286 11.6484 5.39643 11.25H4.8C2.15 11.25 0 13.6016 0 16.5V18.125C0 19.1602 0.767857 20 1.71429 20H14.2857C15.2321 20 16 19.1602 16 18.125V16.5C16 13.6016 13.85 11.25 11.2 11.25Z" fill="#D2D2D2"/>
</svg>
